<svg width="26" height="22" viewBox="0 0 26 22" fill="none" xmlns="http://www.w3.org/2000/svg">
<mask id="path-1-inside-1_49_6" fill="white">
<path d="M0.197205 0H25.7448V21.8979H0.197205V0Z"/>
</mask>
<path d="M0.197205 0H25.7448V21.8979H0.197205V0Z" fill="#D9D9D9"/>
<path d="M0.197205 0V-3.64965H-3.45245V0H0.197205ZM0.197205 3.64965H25.7448V-3.64965H0.197205V3.64965ZM3.84686 21.8979V0H-3.45245V21.8979H3.84686Z" fill="white" mask="url(#path-1-inside-1_49_6)"/>
<mask id="path-3-inside-2_49_6" fill="white">
<path d="M5.67169 3.64966H22.0951V20.0731H5.67169V3.64966Z"/>
</mask>
<path d="M5.67169 3.64966V7.15256e-06H3.84687V3.64966H5.67169ZM22.0951 3.64966H23.9199V7.15256e-06H22.0951V3.64966ZM22.0951 20.0731V21.8979H23.9199V20.0731H22.0951ZM5.67169 20.0731H3.84687V21.8979H5.67169V20.0731ZM5.67169 7.29931H22.0951V7.15256e-06H5.67169V7.29931ZM20.2703 3.64966V20.0731H23.9199V3.64966H20.2703ZM22.0951 18.2483H5.67169V21.8979H22.0951V18.2483ZM7.49652 20.0731V3.64966H3.84687V20.0731H7.49652Z" fill="black" fill-opacity="0.3" mask="url(#path-3-inside-2_49_6)"/>
</svg>
